<?xml version="1.0" encoding="UTF-8" standalone="no"?><!DOCTYPE svg PUBLIC "-//W3C//DTD SVG 1.1//EN" "http://www.w3.org/Graphics/SVG/1.1/DTD/svg11.dtd"><svg width="100%" height="100%" viewBox="0 0 14 14" version="1.1" xmlns="http://www.w3.org/2000/svg" xmlns:xlink="http://www.w3.org/1999/xlink" xml:space="preserve" xmlns:serif="http://www.serif.com/" style="fill-rule:evenodd;clip-rule:evenodd;stroke-linejoin:round;stroke-miterlimit:2;"><path d="M8,2.029l0,1l-5.085,0c-0.243,0 -0.476,0.096 -0.648,0.268c-0.172,0.171 -0.269,0.404 -0.269,0.646l0,7.143c0,0.242 0.097,0.475 0.269,0.646c0.172,0.172 0.405,0.268 0.648,0.268l7.167,0c0.243,0 0.476,-0.096 0.648,-0.268c0.172,-0.171 0.268,-0.404 0.268,-0.646l0,-5.086l0.988,0l0.012,5.14c0.001,0.493 -0.194,0.966 -0.542,1.315c-0.348,0.349 -0.82,0.545 -1.312,0.545l-7.271,0c-1.023,0 -1.853,-0.829 -1.855,-1.854l-0.016,-7.257c-0.001,-0.493 0.194,-0.966 0.542,-1.315c0.348,-0.349 0.82,-0.545 1.312,-0.545l5.144,0Zm2.877,-1.029l2.121,2.121l-5.778,5.778l-3.889,1.768l1.768,-3.889l5.778,-5.778Zm-5.637,7.758l0.859,-0.382l-0.477,-0.477l-0.382,0.859Zm0.974,-1.681l0.707,0.707l3.293,-3.293l-0.707,-0.707l-3.293,3.293Zm4,-4l0.707,0.707l0.663,-0.663l-0.707,-0.707l-0.663,0.663Z"/></svg>